
        <svg xmlns="http://www.w3.org/2000/svg" xmlns:xlink="http://www.w3.org/1999/xlink" version="1.1" width="2755.972294930243" height="3211.9978688407878" viewBox="0 0 2755.972294930243 3211.9978688407878">
			
			<g transform="scale(10.599893442039397) translate(10, 10)">
				<defs id="SvgjsDefs2227"/><g id="SvgjsG2228" featureKey="nameFeature-0" transform="matrix(10.138234827751129,0,0,10.138234827751129,-10.138639699294453,-122.49541065012782)" fill="#fff"><path d="M1.8648 39.9987891 l-0.86476 0 l0 -27.915 l0.86476 0 l0 27.915 z M3.2006 39.9987891 l-0.86476 0 l0 -27.915 l0.86476 0 l0 27.915 z M4.5328 39.9987891 l-0.86476 0 l0 -27.915 l0.86476 0 l0 27.915 z M5.8684 39.9987891 l-0.86476 0 l0 -27.915 l0.86476 0 l0 27.915 z M23.808 12.082999999999998 l0.8648 -0.000039062 l0 27.915 l-1.0671 0 l-16.405 -26.414 l0 0.76543 l0.0073436 -0.0036719 l15.93 25.652 l-1.0156 0 l-14.922 -24.026 l0 0.7507 l14.454 23.275 l-1.0156 0 l-13.439 -21.638 l0 0.7507 l12.972 20.887 l-1.0193 0 l-11.952 -19.249 l0 0.7507 l11.488 18.499 l-1.0193 0 l-10.469 -16.861 l0 16.861 l-0.86476 0 l0 -18.252 l-0.0073436 -0.014726 l0.0073436 -0.0036719 l0 -9.6449 l0.94942 0 l11.187 18.013 l0 -18.013 l0.86476 0 l0 19.404 l0.471 0.75436 l0 -20.158 l0.86109 0 l0 21.553 l0.471 0.75436 l0 -22.307 l0.86476 0 l0 23.698 l0.46736 0.75804 l0 -24.456 l0.86476 0 l0 25.847 l0.471 0.75436 l0 -26.602 z"/></g>
			</g>
		</svg>
	